<svg xmlns="http://www.w3.org/2000/svg" width="948" height="92" viewBox="0 0 948 92" role="img" aria-label="Claude Code hooks write one JSON file per session; Wigglet watches the folder and shows one Wigglet per session"><rect x="8" y="8" width="200" height="76" rx="10" fill="#1f1b18" stroke="#968c80" stroke-width="1.5"/><rect x="22" y="22" width="6" height="6" fill="#d97757" shape-rendering="crispEdges"/><text x="22" y="48" font-family="ui-monospace, SFMono-Regular, Menlo, monospace" font-size="14" font-weight="700" fill="#f6f1e7">Claude Code</text><text x="22" y="68" font-family="ui-monospace, SFMono-Regular, Menlo, monospace" font-size="11" fill="#968c80">hooks fire on tool use</text><path d="M216 46.0 h24" stroke="#968c80" stroke-width="1.5"/><path d="M238 41.0 l6 5 l-6 5 z" fill="#968c80"/><rect x="252" y="8" width="200" height="76" rx="10" fill="#1f1b18" stroke="#968c80" stroke-width="1.5"/><rect x="266" y="22" width="6" height="6" fill="#d97757" shape-rendering="crispEdges"/><text x="266" y="48" font-family="ui-monospace, SFMono-Regular, Menlo, monospace" font-size="14" font-weight="700" fill="#f6f1e7">one JSON per session</text><text x="266" y="68" font-family="ui-monospace, SFMono-Regular, Menlo, monospace" font-size="11" fill="#968c80">~/.claude/wigglet/sessions/</text><path d="M460 46.0 h24" stroke="#968c80" stroke-width="1.5"/><path d="M482 41.0 l6 5 l-6 5 z" fill="#968c80"/><rect x="496" y="8" width="200" height="76" rx="10" fill="#1f1b18" stroke="#968c80" stroke-width="1.5"/><rect x="510" y="22" width="6" height="6" fill="#d97757" shape-rendering="crispEdges"/><text x="510" y="48" font-family="ui-monospace, SFMono-Regular, Menlo, monospace" font-size="14" font-weight="700" fill="#f6f1e7">Wigglet</text><text x="510" y="68" font-family="ui-monospace, SFMono-Regular, Menlo, monospace" font-size="11" fill="#968c80">watches the folder</text><path d="M704 46.0 h24" stroke="#968c80" stroke-width="1.5"/><path d="M726 41.0 l6 5 l-6 5 z" fill="#968c80"/><rect x="740" y="8" width="200" height="76" rx="10" fill="#1f1b18" stroke="#d97757" stroke-width="1.5"/><rect x="754" y="22" width="6" height="6" fill="#d97757" shape-rendering="crispEdges"/><text x="754" y="48" font-family="ui-monospace, SFMono-Regular, Menlo, monospace" font-size="14" font-weight="700" fill="#f6f1e7">one Wigglet per session</text><text x="754" y="68" font-family="ui-monospace, SFMono-Regular, Menlo, monospace" font-size="11" fill="#968c80">on your desktop</text></svg>
